<svg width="54" height="55" viewBox="0 0 54 55" fill="none" xmlns="http://www.w3.org/2000/svg">
<path d="M11.3265 25.68C9.19845 26.2155 7.3392 27.5096 6.09804 29.3192C4.85689 31.1289 4.31926 33.3294 4.58617 35.5075C4.85307 37.6856 5.90614 39.6912 7.54752 41.1476C9.1889 42.604 11.3056 43.4109 13.5 43.4167H38.25C39.8386 43.4157 41.4089 43.0782 42.8577 42.4264C44.3064 41.7747 45.6007 40.8236 46.6554 39.6356C47.71 38.4476 48.5011 37.0497 48.9766 35.5339C49.4521 34.0182 49.6011 32.4189 49.414 30.8414C49.2268 29.2638 48.7077 27.7438 47.8908 26.3814C47.0738 25.019 45.9776 23.845 44.6743 22.9368C43.3709 22.0285 41.89 21.4066 40.329 21.112C38.7679 20.8173 37.1622 20.8566 35.6175 21.2272L32.625 22.0417" stroke="#F8F8F8" stroke-width="2.5" stroke-linecap="round" stroke-linejoin="round"/>
<path d="M35.6175 21.2272C34.8485 18.182 32.9503 15.5431 30.3078 13.8456C27.6653 12.148 24.4761 11.5187 21.3868 12.0853C18.2975 12.6518 15.5393 14.3719 13.6711 16.8967C11.803 19.4216 10.9648 22.5623 11.3265 25.6822C11.3265 25.6822 11.6707 27.6667 12.375 28.7917" stroke="#F8F8F8" stroke-width="2.5" stroke-linecap="round" stroke-linejoin="round"/>
</svg>
