<svg width="53" height="53" viewBox="0 0 53 53" fill="none" xmlns="http://www.w3.org/2000/svg">
<path d="M38.6485 23.0719L27.8764 5.91845C27.7201 5.69909 27.5136 5.52026 27.2742 5.39687C27.0348 5.27348 26.7693 5.20911 26.5 5.20911C26.2307 5.20911 25.9652 5.27348 25.7258 5.39687C25.4864 5.52026 25.2799 5.69909 25.1236 5.91845L14.3028 23.1532C12.7994 25.5781 11.962 28.3565 11.875 31.2083C11.875 35.0871 13.4158 38.807 16.1586 41.5498C18.9013 44.2925 22.6212 45.8333 26.5 45.8333C30.3788 45.8333 34.0987 44.2925 36.8414 41.5498C39.5842 38.807 41.125 35.0871 41.125 31.2083C41.0316 28.3252 40.1772 25.5182 38.6485 23.0719ZM26.5 42.5833C23.4844 42.5795 20.5933 41.3798 18.4609 39.2474C16.3285 37.115 15.1289 34.224 15.125 31.2083C15.2114 28.9359 15.894 26.7262 17.1043 24.8009L18.6236 22.3797L34.9939 38.75C33.9307 39.9545 32.6236 40.9194 31.1592 41.5805C29.6948 42.2417 28.1067 42.5841 26.5 42.5849V42.5833Z" fill="#F8F8F8"/>
</svg>
