<svg width="42" height="42" viewBox="0 0 42 42" fill="none" xmlns="http://www.w3.org/2000/svg">
<path d="M13.0512 26.4879V9.1875C13.0512 8.45742 12.5426 7.875 11.8125 7.875C11.0824 7.875 10.5 8.45742 10.5 9.1875V26.4879C8.69531 27.1339 7.6084 28.98 7.93652 30.8667C8.25234 32.7633 9.89297 34.1332 11.8125 34.1332C13.7296 34.1332 15.3702 32.7625 15.6885 30.8659C16.0125 28.9816 14.8559 27.1359 13.0512 26.4879V26.4879ZM20.9262 9.1875C20.9262 4.11223 16.8902 0 11.8125 0C6.73723 0 2.625 4.11223 2.625 9.1875V22.8457C1.00488 24.8801 0 27.3984 0 30.1875C0 36.709 5.29102 42 11.8125 42C18.334 42 23.5512 36.709 23.5512 30.1875C23.5512 27.3984 22.5463 24.8653 20.9262 22.8457V9.1875V9.1875ZM18.0387 32.2711C17.0707 34.9535 14.6344 36.6762 11.8125 36.6762C8.99227 36.6762 6.48047 34.8846 5.58797 32.1981C4.69629 29.5969 5.61914 26.652 7.875 24.9621V9.1875C7.875 7.01367 9.63867 5.24918 11.8125 5.24918C13.9863 5.24918 15.6762 7.01367 15.6762 9.1875V24.9621C18.0059 26.652 18.9246 29.5969 18.0387 32.2711V32.2711ZM41.352 10.1719L36.102 3.60938C35.1077 2.36332 32.9979 2.36332 32.0029 3.60938L26.7529 10.1719C25.8464 11.3047 26.03 12.956 27.163 13.8633C28.2909 14.7681 29.9471 14.5836 30.852 13.4531L31.5 12.7312V36.75C31.5 38.2011 32.6755 39.375 34.125 39.375C35.5745 39.375 36.75 38.2011 36.75 36.75V12.7312L37.3242 13.4531C37.842 14.1017 38.6047 14.4375 39.375 14.4375C39.9505 14.4375 40.53 14.2504 41.0132 13.8633C42.1477 12.9527 42.3281 11.3039 41.352 10.1719Z" fill="#F8F8F8"/>
</svg>
