<svg width="42" height="42" viewBox="0 0 42 42" fill="none" xmlns="http://www.w3.org/2000/svg">
<path d="M13.0512 26.4879V24.9359C13.0512 24.2074 12.5426 23.5512 11.8125 23.5512C11.0845 23.5512 10.5738 24.1348 10.5738 24.8629L10.5 26.4879C8.69531 27.1339 7.6084 28.98 7.93652 30.8667C8.25234 32.7633 9.89297 34.1332 11.8125 34.1332C13.7296 34.1332 15.3702 32.7625 15.6885 30.8659C16.0125 28.9816 14.8559 27.1359 13.0512 26.4879V26.4879ZM20.9262 9.1875C20.9262 4.11223 16.8902 0 11.8125 0C6.73723 0 2.625 4.11223 2.625 9.1875V22.8457C1.00488 24.8801 0 27.3984 0 30.1875C0 36.709 5.29102 42 11.8125 42C18.334 42 23.5512 36.709 23.5512 30.1875C23.5512 27.3984 22.5463 24.8653 20.9262 22.8457V9.1875V9.1875ZM18.0387 32.2711C17.0707 34.9535 14.6344 36.6762 11.8125 36.6762C8.99227 36.6762 6.48047 34.8846 5.58797 32.1981C4.69629 29.5969 5.61914 26.652 7.875 24.9621V9.1875C7.875 7.01367 9.63867 5.25 11.8125 5.25C13.9863 5.25 15.6762 7.01367 15.6762 9.1875V24.9621C18.0059 26.652 18.9246 29.5969 18.0387 32.2711V32.2711ZM40.9418 28.1367C39.8122 27.2319 38.1593 27.4189 37.2529 28.5469L36.75 29.2687V5.25C36.75 3.79887 35.5745 2.625 34.125 2.625C32.6755 2.625 31.5 3.79887 31.5 5.25V29.2687L30.852 28.5469C29.9471 27.414 28.2934 27.2319 27.163 28.1367C26.0302 29.044 25.8464 30.6953 26.7529 31.8281L32.0029 38.3906C32.5746 39.0141 33.3293 39.375 34.125 39.375C34.9207 39.375 35.677 39.0136 36.1741 38.3906L41.4241 31.8281C42.3281 30.6961 42.1477 29.0473 40.9418 28.1367Z" fill="#F8F8F8"/>
</svg>
