<svg width="50" height="50" viewBox="0 0 50 50" fill="none" xmlns="http://www.w3.org/2000/svg">
    <path
        d="M46.1539 28.4103H36.9231C36.1073 28.4095 35.3252 28.085 34.7483 27.5082C34.1714 26.9313 33.847 26.1492 33.8462 25.3334V9.94875C33.847 9.13295 34.1714 8.35079 34.7483 7.77394C35.3252 7.19708 36.1073 6.87264 36.9231 6.87183H46.1539V9.94875H36.9231V25.3334H46.1539V28.4103Z"
        fill="#F8F8F8" />
    <path
        d="M27.6924 9.94877C29.3917 9.94877 30.7693 8.57118 30.7693 6.87185C30.7693 5.17251 29.3917 3.79492 27.6924 3.79492C25.9931 3.79492 24.6155 5.17251 24.6155 6.87185C24.6155 8.57118 25.9931 9.94877 27.6924 9.94877Z"
        fill="#F8F8F8" />
    <path
        d="M15.3846 31.7703V19.1796H12.3076V31.7703C11.2812 32.1333 10.416 32.8474 9.86514 33.7865C9.31425 34.7256 9.11308 35.8292 9.29719 36.9022C9.4813 37.9753 10.0388 38.9487 10.8712 39.6505C11.7037 40.3523 12.7574 40.7371 13.8461 40.7371C14.9349 40.7371 15.9886 40.3523 16.821 39.6505C17.6534 38.9487 18.2109 37.9753 18.395 36.9022C18.5791 35.8292 18.378 34.7256 17.8271 33.7865C17.2762 32.8474 16.4111 32.1333 15.3846 31.7703Z"
        fill="#F8F8F8" />
    <path
        d="M13.8463 46.8718C11.7262 46.8742 9.65273 46.2502 7.88616 45.0781C6.11959 43.906 4.7387 42.2381 3.91689 40.2838C3.09507 38.3295 2.86897 36.176 3.26697 34.0937C3.66498 32.0113 4.66934 30.093 6.15395 28.5795V11.4872C6.15395 9.4471 6.96438 7.49053 8.40697 6.04795C9.84956 4.60536 11.8061 3.79492 13.8463 3.79492C15.8864 3.79492 17.8429 4.60536 19.2855 6.04795C20.7281 7.49053 21.5386 9.4471 21.5386 11.4872V28.5795C23.0232 30.093 24.0275 32.0113 24.4255 34.0937C24.8235 36.176 24.5974 38.3295 23.7756 40.2838C22.9538 42.2381 21.5729 43.906 19.8063 45.0781C18.0398 46.2502 15.9663 46.8742 13.8463 46.8718ZM13.8463 6.87185C12.6226 6.87307 11.4493 7.35972 10.584 8.22501C9.71874 9.0903 9.23209 10.2635 9.23087 11.4872V29.9226L8.7201 30.3826C7.55837 31.4209 6.73936 32.7876 6.37145 34.3017C6.00355 35.8157 6.10411 37.4058 6.65982 38.8615C7.21553 40.3171 8.20019 41.5697 9.48347 42.4534C10.7667 43.3371 12.2881 43.8103 13.8463 43.8103C15.4044 43.8103 16.9258 43.3371 18.209 42.4534C19.4923 41.5697 20.477 40.3171 21.0327 38.8615C21.5884 37.4058 21.689 35.8157 21.3211 34.3017C20.9531 32.7876 20.1341 31.4209 18.9724 30.3826L18.4616 29.9226V11.4872C18.4604 10.2635 17.9738 9.0903 17.1085 8.22501C16.2432 7.35972 15.07 6.87307 13.8463 6.87185Z"
        fill="#F8F8F8" />
</svg>