<svg width="66" height="42" viewBox="0 0 66 42" fill="none" xmlns="http://www.w3.org/2000/svg">
    <path fill-rule="evenodd" clip-rule="evenodd"
        d="M51.2141 13.7273H51.4436C53.2482 13.7282 55.0349 14.085 56.7015 14.7773C58.368 15.4696 59.8817 16.4838 61.1557 17.7618C63.7338 20.3458 65.1816 23.8468 65.1816 27.4969C65.1816 31.1469 63.7338 34.648 61.1557 37.2319C59.8811 38.5105 58.3667 39.525 56.6994 40.2173C55.032 40.9096 53.2444 41.2661 51.439 41.2664V41.2067L51.4115 41.2664H17.0932C14.8198 41.2868 12.5682 40.8226 10.4883 39.9045C8.40838 38.9864 6.54801 37.6357 5.03113 35.9422C3.12754 33.8203 1.82246 31.2305 1.24969 28.438C0.676923 25.6456 0.85707 22.7511 1.77166 20.0512C2.68626 17.3513 4.30239 14.9432 6.45438 13.0738C8.60638 11.2044 11.2168 9.94091 14.018 9.41287C16.2513 8.99153 18.5489 9.05414 20.7559 9.59647C22.1471 6.41118 24.5376 3.76553 27.566 2.05962C30.5944 0.353723 34.0959 -0.319635 37.541 0.141391C40.989 0.607081 44.1906 2.18622 46.6587 4.63859C49.1268 7.09096 50.7264 10.2824 51.2141 13.7273V13.7273ZM19.2826 36.6765H51.4574C52.6608 36.6753 53.8522 36.4368 54.9633 35.9746C56.0745 35.5124 57.0835 34.8356 57.9328 33.983C58.782 33.1303 59.4548 32.1185 59.9125 31.0056C60.3702 29.8926 60.604 28.7003 60.6004 27.4969C60.598 25.0662 59.6326 22.7355 57.9155 21.015C56.1985 19.2945 53.8697 18.3245 51.439 18.3172H47.2439L46.6794 14.3837C46.3349 11.9193 45.1956 9.63462 43.4344 7.87675C41.6732 6.11887 39.3864 4.98383 36.9214 4.64403C34.4556 4.30816 31.9477 4.79027 29.7822 6.01644C27.6168 7.24261 25.9132 9.14516 24.9327 11.4324L23.4043 14.9299L19.6911 14.0624C18.8408 13.8515 17.9692 13.7391 17.0932 13.7273C14.0548 13.7273 11.1402 14.9345 8.99676 17.0871C7.39935 18.6933 6.31245 20.7359 5.8727 22.9581C5.43295 25.1803 5.65999 27.4829 6.52527 29.5765C7.39054 31.67 8.85543 33.461 10.7358 34.7243C12.6161 35.9876 14.828 36.6668 17.0932 36.6765H19.2826Z"
        fill="white" />
</svg>