<svg width="25" height="26" viewBox="0 0 25 26" fill="none" xmlns="http://www.w3.org/2000/svg">
<path d="M12.5 0.5C5.625 0.5 0 6.125 0 13C0 19.875 5.625 25.5 12.5 25.5C19.375 25.5 25 19.875 25 13C25 6.125 19.375 0.5 12.5 0.5ZM12.5 3C16.25 3 19.375 5 21.125 8H3.875C5.625 5 8.75 3 12.5 3ZM12.5 23C8.75 23 5.625 21 3.875 18H21.125C19.375 21 16.25 23 12.5 23ZM2.875 15.5C2.625 14.75 2.5 13.875 2.5 13C2.5 12.125 2.625 11.25 2.875 10.5H22.25C22.5 11.25 22.625 12.125 22.625 13C22.625 13.875 22.5 14.75 22.25 15.5H2.875Z" fill="#F8F8F8"/>
</svg>
