<svg width="25" height="26" viewBox="0 0 25 26" fill="none" xmlns="http://www.w3.org/2000/svg">
<path d="M12.5 0.5C10.0277 0.5 7.61099 1.23311 5.55538 2.60663C3.49976 3.98015 1.89761 5.93238 0.951512 8.21646C0.00541605 10.5005 -0.242126 13.0139 0.24019 15.4386C0.722505 17.8634 1.91301 20.0907 3.66117 21.8388C5.40933 23.587 7.63661 24.7775 10.0614 25.2598C12.4861 25.7421 14.9995 25.4946 17.2836 24.5485C19.5676 23.6024 21.5199 22.0002 22.8934 19.9446C24.2669 17.889 25 15.4723 25 13C24.9901 9.68784 23.67 6.51416 21.3279 4.17209C18.9858 1.83003 15.8122 0.509892 12.5 0.5ZM9.25 22.5C7.27915 21.8118 5.57111 20.5277 4.36254 18.8256C3.15398 17.1234 2.50472 15.0876 2.50472 13C2.50472 10.9124 3.15398 8.87657 4.36254 7.17443C5.57111 5.4723 7.27915 4.18819 9.25 3.5C7.70486 6.42921 6.8901 9.68828 6.87501 13C6.8901 16.3117 7.70486 19.5708 9.25 22.5ZM12.5 23C10.4475 20.0709 9.35557 16.5766 9.37501 13C9.35557 9.42342 10.4475 5.92911 12.5 3C14.5525 5.92911 15.6444 9.42342 15.625 13C15.6444 16.5766 14.5525 20.0709 12.5 23ZM15.75 22.5C17.3093 19.5762 18.125 16.3136 18.125 13C18.125 9.68641 17.3093 6.42376 15.75 3.5C17.7238 4.18419 19.4349 5.46716 20.6449 7.17008C21.8549 8.873 22.5034 10.911 22.5 13C22.5281 15.0947 21.8892 17.1441 20.6758 18.8519C19.4624 20.5596 17.7373 21.8372 15.75 22.5Z" fill="#F8F8F8"/>
</svg>
