<svg width="42" height="43" viewBox="0 0 42 43" fill="none" xmlns="http://www.w3.org/2000/svg">
<g clip-path="url(#clip0_9_245)">
<path d="M32.8125 5.91675C31.072 5.91675 29.4028 6.60816 28.1721 7.83886C26.9414 9.06957 26.25 10.7388 26.25 12.4793C26.25 12.8273 26.1117 13.1612 25.8656 13.4073C25.6194 13.6535 25.2856 13.7918 24.9375 13.7918C24.5894 13.7918 24.2556 13.6535 24.0094 13.4073C23.7633 13.1612 23.625 12.8273 23.625 12.4793C23.625 10.6621 24.1638 8.88583 25.1734 7.37495C26.1829 5.86407 27.6178 4.68649 29.2966 3.99111C30.9754 3.29573 32.8227 3.11379 34.6049 3.46829C36.3871 3.82279 38.0241 4.69781 39.309 5.98271C40.5939 7.2676 41.469 8.90466 41.8235 10.6869C42.178 12.4691 41.996 14.3164 41.3006 15.9952C40.6053 17.674 39.4277 19.1088 37.9168 20.1184C36.4059 21.1279 34.6296 21.6668 32.8125 21.6668H1.3125C0.964403 21.6668 0.630564 21.5285 0.384422 21.2823C0.138281 21.0362 0 20.7023 0 20.3543C0 20.0062 0.138281 19.6723 0.384422 19.4262C0.630564 19.18 0.964403 19.0418 1.3125 19.0418H32.8125C34.553 19.0418 36.2222 18.3503 37.4529 17.1196C38.6836 15.8889 39.375 14.2197 39.375 12.4793C39.375 10.7388 38.6836 9.06957 37.4529 7.83886C36.2222 6.60816 34.553 5.91675 32.8125 5.91675ZM14.4375 8.54175C13.7413 8.54175 13.0736 8.81831 12.5813 9.3106C12.0891 9.80288 11.8125 10.4706 11.8125 11.1668C11.8125 11.5148 11.6742 11.8487 11.4281 12.0948C11.1819 12.341 10.8481 12.4793 10.5 12.4793C10.1519 12.4793 9.81806 12.341 9.57192 12.0948C9.32578 11.8487 9.1875 11.5148 9.1875 11.1668C9.1875 10.1284 9.49541 9.11337 10.0723 8.25001C10.6492 7.38665 11.4691 6.71374 12.4284 6.31638C13.3877 5.91902 14.4433 5.81506 15.4617 6.01763C16.4801 6.2202 17.4156 6.72022 18.1498 7.45444C18.884 8.18867 19.3841 9.12413 19.5866 10.1425C19.7892 11.1609 19.6852 12.2165 19.2879 13.1758C18.8905 14.1352 18.2176 14.9551 17.3542 15.532C16.4909 16.1088 15.4759 16.4168 14.4375 16.4168H1.3125C0.964403 16.4168 0.630564 16.2785 0.384422 16.0323C0.138281 15.7862 0 15.4523 0 15.1043C0 14.7562 0.138281 14.4223 0.384422 14.1762C0.630564 13.93 0.964403 13.7918 1.3125 13.7918H14.4375C15.1337 13.7918 15.8014 13.5152 16.2937 13.0229C16.7859 12.5306 17.0625 11.8629 17.0625 11.1668C17.0625 10.4706 16.7859 9.80288 16.2937 9.3106C15.8014 8.81831 15.1337 8.54175 14.4375 8.54175ZM0 25.6043C0 25.2562 0.138281 24.9223 0.384422 24.6762C0.630564 24.43 0.964403 24.2918 1.3125 24.2918H27.6727C29.2303 24.2918 30.7528 24.7536 32.0479 25.6189C33.3429 26.4842 34.3523 27.7142 34.9483 29.1531C35.5443 30.5921 35.7003 32.1755 35.3964 33.7031C35.0926 35.2307 34.3426 36.6339 33.2412 37.7352C32.1399 38.8366 30.7367 39.5866 29.2091 39.8904C27.6815 40.1943 26.0981 40.0383 24.6591 39.4423C23.2201 38.8463 21.9902 37.8369 21.1249 36.5419C20.2596 35.2468 19.7977 33.7243 19.7977 32.1668C19.7977 31.8187 19.936 31.4848 20.1822 31.2387C20.4283 30.9925 20.7622 30.8543 21.1102 30.8543C21.4583 30.8543 21.7922 30.9925 22.0383 31.2387C22.2845 31.4848 22.4227 31.8187 22.4227 32.1668C22.4228 33.2051 22.7307 34.2201 23.3075 35.0835C23.8844 35.9469 24.7043 36.6198 25.6637 37.0171C26.623 37.4145 27.6786 37.5184 28.697 37.3159C29.7154 37.1133 30.6508 36.6133 31.3851 35.8791C32.1193 35.1448 32.6193 34.2094 32.8219 33.191C33.0244 32.1726 32.9205 31.117 32.5231 30.1577C32.1258 29.1984 31.4529 28.3784 30.5895 27.8015C29.7261 27.2247 28.7111 26.9168 27.6727 26.9168H1.3125C0.964403 26.9168 0.630564 26.7785 0.384422 26.5323C0.138281 26.2862 0 25.9524 0 25.6043Z" fill="#F8F8F8"/>
</g>
<defs>
<clipPath id="clip0_9_245">
<rect width="42" height="42" fill="white" transform="translate(0 0.666748)"/>
</clipPath>
</defs>
</svg>
